<?xml version="1.0" encoding="UTF-8"?>
<svg id="Layer_1" xmlns="http://www.w3.org/2000/svg" version="1.1" viewBox="0 0 800 800">
  <!-- Generator: Adobe Illustrator 30.3.0, SVG Export Plug-In . SVG Version: 2.1.3 Build 182)  -->
  <defs>
    <style>
      .st0 {
        fill: none;
        stroke: #ff0062;
        stroke-linecap: round;
        stroke-linejoin: round;
        stroke-width: 66.67px;
      }
    </style>
  </defs>
  <path class="st0" d="M100,100l600,600M654.16,467.45c7.94-21.37,12.5-43.89,12.5-67.45v-126.08c0-26.65,0-39.98-4.36-51.43-3.85-10.12-10.11-19.15-18.23-26.31-9.19-8.1-21.67-12.78-46.62-22.14l-178.73-67.02c-6.93-2.6-10.39-3.9-13.96-4.41-3.16-.46-6.37-.46-9.53,0-3.57.52-7.03,1.81-13.96,4.41l-63.72,23.9M578.16,578.16c-55.57,54.85-122.9,93.62-156.66,111.22-6.92,3.61-10.38,5.41-15.13,6.33-3.7.72-9.03.72-12.73,0-4.75-.92-8.17-2.71-15.02-6.27-63.29-32.98-245.29-140.73-245.29-289.43v-126.08c0-26.65,0-39.98,4.36-51.43,3.85-10.12,10.11-19.15,18.23-26.31,6.23-5.49,13.96-9.41,26.06-14.27"/>
</svg>