<?xml version="1.0" encoding="UTF-8"?>
<svg id="Layer_1" xmlns="http://www.w3.org/2000/svg" version="1.1" viewBox="0 0 800 800">
  <!-- Generator: Adobe Illustrator 30.3.0, SVG Export Plug-In . SVG Version: 2.1.3 Build 182)  -->
  <defs>
    <style>
      .st0 {
        fill: none;
        stroke: #72b729;
        stroke-linecap: round;
        stroke-linejoin: round;
        stroke-width: 66.67px;
      }
    </style>
  </defs>
  <path class="st0" d="M300,400l66.67,66.67,133.33-133.33M666.67,400c0,148.7-182,256.46-245.29,289.43-6.84,3.57-10.27,5.35-15.01,6.27-3.7.72-9.03.72-12.73,0-4.75-.92-8.17-2.71-15.01-6.27-63.29-32.98-245.29-140.73-245.29-289.43v-126.08c0-26.65,0-39.98,4.36-51.43,3.85-10.12,10.11-19.15,18.23-26.31,9.19-8.1,21.67-12.78,46.62-22.14l178.73-67.02c6.93-2.6,10.39-3.9,13.96-4.41,3.16-.46,6.37-.46,9.53,0,3.57.52,7.03,1.81,13.96,4.41l178.73,67.02c24.95,9.36,37.43,14.04,46.62,22.14,8.12,7.16,14.38,16.19,18.23,26.31,4.36,11.45,4.36,24.78,4.36,51.43v126.08Z"/>
</svg>