<?xml version="1.0" encoding="UTF-8"?>
<svg id="Layer_1" xmlns="http://www.w3.org/2000/svg" version="1.1" viewBox="0 0 800 800">
  <!-- Generator: Adobe Illustrator 30.3.0, SVG Export Plug-In . SVG Version: 2.1.3 Build 182)  -->
  <defs>
    <style>
      .st0 {
        fill: none;
        stroke: #000;
        stroke-linecap: round;
        stroke-linejoin: round;
        stroke-width: 66.67px;
      }
    </style>
  </defs>
  <line class="st0" x1="100" y1="400" x2="700" y2="400"/>
  <line class="st0" x1="400" y1="266.67" x2="400" y2="400"/>
  <line class="st0" x1="216.67" y1="400" x2="216.67" y2="533.33"/>
  <line class="st0" x1="583.33" y1="400" x2="583.33" y2="533.33"/>
  <path class="st0" d="M336.67,266.67h126.67c18.67,0,28,0,35.13-3.63,6.27-3.2,11.37-8.3,14.57-14.57,3.63-7.13,3.63-16.46,3.63-35.13v-60c0-18.67,0-28-3.63-35.13-3.2-6.27-8.29-11.37-14.57-14.57-7.13-3.63-16.46-3.63-35.13-3.63h-126.67c-18.67,0-28,0-35.13,3.63-6.27,3.2-11.37,8.3-14.57,14.57-3.63,7.13-3.63,16.46-3.63,35.13v60c0,18.67,0,28,3.63,35.13,3.2,6.27,8.3,11.37,14.57,14.57,7.13,3.63,16.46,3.63,35.13,3.63Z"/>
  <path class="st0" d="M520,700h126.67c18.67,0,28,0,35.13-3.63,6.27-3.2,11.37-8.29,14.57-14.57,3.63-7.13,3.63-16.46,3.63-35.13v-60c0-18.67,0-28-3.63-35.13-3.2-6.27-8.29-11.37-14.57-14.57-7.13-3.63-16.46-3.63-35.13-3.63h-126.67c-18.67,0-28,0-35.13,3.63-6.27,3.2-11.37,8.29-14.57,14.57-3.63,7.13-3.63,16.46-3.63,35.13v60c0,18.67,0,28,3.63,35.13,3.2,6.27,8.29,11.37,14.57,14.57,7.13,3.63,16.46,3.63,35.13,3.63Z"/>
  <path class="st0" d="M153.33,700h126.67c18.67,0,28,0,35.13-3.63,6.27-3.2,11.37-8.29,14.57-14.57,3.63-7.13,3.63-16.46,3.63-35.13v-60c0-18.67,0-28-3.63-35.13-3.2-6.27-8.3-11.37-14.57-14.57-7.13-3.63-16.46-3.63-35.13-3.63h-126.67c-18.67,0-28,0-35.13,3.63-6.27,3.2-11.37,8.29-14.57,14.57-3.63,7.13-3.63,16.46-3.63,35.13v60c0,18.67,0,28,3.63,35.13,3.2,6.27,8.3,11.37,14.57,14.57,7.13,3.63,16.46,3.63,35.13,3.63Z"/>
</svg>