<?xml version="1.0" encoding="UTF-8"?>
<svg id="Layer_1" xmlns="http://www.w3.org/2000/svg" version="1.1" viewBox="0 0 800 800">
  <!-- Generator: Adobe Illustrator 30.3.0, SVG Export Plug-In . SVG Version: 2.1.3 Build 182)  -->
  <path d="M60.6,237.11c-13.09,11.72-14.21,31.83-2.49,44.93,11.72,13.09,31.83,14.21,44.93,2.49l-42.44-47.42ZM696.96,284.53c13.09,11.72,33.21,10.61,44.93-2.49,11.72-13.09,10.6-33.21-2.49-44.93l-42.44,47.42ZM399.83,570c-36.26,0-65.65,29.39-65.65,65.65s29.39,65.65,65.65,65.65v-131.3ZM400.49,701.3c36.26,0,65.65-29.39,65.65-65.65s-29.39-65.65-65.65-65.65v131.3ZM485.61,522.38c13,11.82,33.12,10.87,44.95-2.13,11.83-13,10.87-33.12-2.13-44.95l-42.82,47.08ZM592.62,404.66c13,11.82,33.12,10.87,44.95-2.13,11.82-13,10.87-33.12-2.13-44.95l-42.82,47.07ZM271.57,475.31c-13,11.83-13.95,31.95-2.13,44.95,11.82,13,31.95,13.95,44.95,2.13l-42.82-47.08ZM164.56,357.59c-13,11.82-13.95,31.95-2.13,44.95,11.82,13,31.95,13.95,44.95,2.13l-42.82-47.07ZM103.04,284.53c78.83-70.55,182.85-113.42,296.96-113.42v-63.64c-130.37,0-249.36,49.04-339.4,129.64l42.44,47.42ZM400,171.11c114.11,0,218.13,42.86,296.96,113.42l42.44-47.42c-90.05-80.59-209.04-129.64-339.4-129.64v63.64ZM399.83,701.3h.66v-131.3h-.66v131.3ZM400,489.29c32.99,0,62.98,12.51,85.61,33.09l42.82-47.08c-33.89-30.82-78.99-49.65-128.43-49.65v63.64ZM400,330.2c74.2,0,141.74,28.17,192.62,74.46l42.82-47.07c-62.14-56.53-144.8-91.03-235.44-91.03v63.64ZM314.39,522.38c22.63-20.58,52.62-33.09,85.61-33.09v-63.64c-49.43,0-94.54,18.83-128.43,49.65l42.82,47.08ZM207.38,404.66c50.89-46.29,118.43-74.46,192.62-74.46v-63.64c-90.64,0-173.3,34.5-235.44,91.03l42.82,47.07Z"/>
</svg>